<?xml version="1.0" encoding="UTF-8"?>
<svg id="_életroménagerc" data-name="életroménagerc" xmlns="http://www.w3.org/2000/svg" viewBox="0 0 200 200">
  <defs>
    <style>
      .cls-1 {
        stroke-linecap: round;
        stroke-linejoin: round;
      }

      .cls-1, .cls-2 {
        fill: none;
        stroke: #000;
        stroke-width: 4px;
      }

      .cls-2 {
        stroke-miterlimit: 10;
      }

      .cls-3 {
        stroke-width: 0px;
      }
    </style>
  </defs>
  <g>
    <path class="cls-2" d="m164.74,27H51.88c-4.85,0-8.82,3.97-8.82,8.82v21.18c0,4.95,4.05,9,9,9h72.75c4.95,0,9,4.05,9,9v74.25H50.56c-4.95,0-9,4.05-9,9v6.75c0,4.95,4.05,9,9,9h114.18c4.85,0,8.82-3.97,8.82-8.82V35.82c0-4.85-3.97-8.82-8.82-8.82Z"/>
    <path class="cls-3" d="m153.69,37c5.45,0,9.87,4.43,9.87,9.88s-4.43,9.88-9.87,9.88-9.87-4.43-9.87-9.88,4.43-9.88,9.87-9.88m0-4c-7.66,0-13.87,6.21-13.87,13.88s6.21,13.88,13.87,13.88,13.87-6.21,13.87-13.88-6.21-13.88-13.87-13.88h0Z"/>
    <path class="cls-3" d="m153.69,43.25c-2,0-3.62,1.62-3.62,3.62s1.62,3.62,3.62,3.62,3.62-1.62,3.62-3.62-1.62-3.62-3.62-3.62h0Z"/>
    <path class="cls-2" d="m38.56,54.75c-2.48,0-4.5-2.02-4.5-4.5v-6.75c0-2.47,2.03-4.5,4.5-4.5h4.5v15.75h-4.5Z"/>
    <path class="cls-2" d="m111.31,67.5v4c0,2.47-2.03,4.5-4.5,4.5h-36.37c-2.47,0-4.5-2.02-4.5-4.5v-4"/>
    <rect class="cls-2" x="42.87" y="64.94" width="9" height="40.87" rx="4.5" ry="4.5" transform="translate(132.75 38) rotate(90)"/>
    <path class="cls-2" d="m103.81,85c0,4.95-4.05,9-9,9h-12.75c-4.95,0-9-4.05-9-9v-8.62h30.75s0,8.62,0,8.62Z"/>
    <line class="cls-2" x1="73.06" y1="85" x2="67.81" y2="85"/>
    <g>
      <path class="cls-2" d="m69.94,127.5v-14.25c0-2.47,2.03-4.5,4.5-4.5h29.25c2.48,0,4.5,2.03,4.5,4.5v14.25-.38c0,10.56-8.56,19.12-19.12,19.12s-19.12-8.56-19.12-19.12v.38Z"/>
      <path class="cls-2" d="m65.31,127.24c-3.65,0-6.62-2.96-6.62-6.62s2.96-6.62,6.62-6.62h4.63v13.24h-4.63Z"/>
    </g>
    <line class="cls-1" x1="151.81" y1="150" x2="166.06" y2="150"/>
    <line class="cls-1" x1="151.81" y1="157.75" x2="166.06" y2="157.75"/>
    <line class="cls-1" x1="151.81" y1="165.5" x2="166.06" y2="165.5"/>
  </g>

</svg>