<?xml version="1.0" encoding="UTF-8"?>
<svg id="objet_divers" xmlns="http://www.w3.org/2000/svg" viewBox="0 0 200 200">
  <defs>
    <style>
      .cls-1 {
        fill: none;
        stroke: #000;
        stroke-linecap: round;
        stroke-linejoin: round;
        stroke-width: 4px;
      }
    </style>
  </defs>
  <g>
    <line class="cls-1" x1="72.59" y1="89.05" x2="58.49" y2="114.2"/>
    <line class="cls-1" x1="82.13" y1="94.68" x2="68.04" y2="119.82"/>
  </g>
  <line class="cls-1" x1="70.31" y1="81.94" x2="70.31" y2="77.44"/>
  <line class="cls-1" x1="59.06" y1="84.95" x2="56.81" y2="81.05"/>
  <line class="cls-1" x1="50.83" y1="93.19" x2="46.93" y2="90.94"/>
  <line class="cls-1" x1="47.81" y1="104.44" x2="43.31" y2="104.44"/>
  <line class="cls-1" x1="50.83" y1="115.69" x2="46.93" y2="117.94"/>
  <line class="cls-1" x1="59.06" y1="123.92" x2="56.81" y2="127.82"/>
  <line class="cls-1" x1="70.31" y1="126.94" x2="70.31" y2="131.44"/>
  <line class="cls-1" x1="81.56" y1="123.92" x2="83.81" y2="127.82"/>
  <line class="cls-1" x1="89.8" y1="115.69" x2="93.7" y2="117.94"/>
  <line class="cls-1" x1="92.81" y1="104.44" x2="97.31" y2="104.44"/>
  <line class="cls-1" x1="89.8" y1="93.19" x2="93.7" y2="90.94"/>
  <line class="cls-1" x1="81.56" y1="84.95" x2="83.81" y2="81.05"/>
  <rect class="cls-1" x="26.44" y="26.44" width="87.75" height="119.25" rx="12" ry="12"/>
  <path class="cls-1" d="m168.19,89.44v75c0,4.95-4.05,9-9,9h-69c-4.95,0-9-4.05-9-9v-18.75"/>
  <polyline class="cls-1" points="168.19 45.19 168.19 46.69 168.19 51.19"/>
  <path class="cls-1" d="m150.19,69.94v81c0,2.47-2.02,4.5-4.5,4.5h-42c-2.48,0-4.5-2.03-4.5-4.5v-5.25"/>
  <line class="cls-1" x1="150.19" y1="26.44" x2="150.19" y2="32.44"/>
  <rect class="cls-1" x="34.69" y="34.69" width="71.25" height="32.25" rx="6" ry="6"/>
  <circle class="cls-1" cx="70.31" cy="104.44" r="15.75"/>
  <path class="cls-1" d="m145.31,32.44h9.75v32.63c0,2.69-2.18,4.87-4.87,4.87h0c-2.69,0-4.87-2.18-4.87-4.87v-32.63h0Z"/>
  <path class="cls-1" d="m163.31,51.94h9.75v32.63c0,2.69-2.18,4.87-4.87,4.87h0c-2.69,0-4.87-2.18-4.87-4.87v-32.63h0Z"/>
  <line class="cls-1" x1="145.31" y1="45.19" x2="155.06" y2="45.19"/>
  <line class="cls-1" x1="163.69" y1="63.94" x2="172.69" y2="63.94"/>
  <line class="cls-1" x1="84.94" y1="43.19" x2="99.19" y2="43.19"/>
  <line class="cls-1" x1="84.94" y1="50.94" x2="99.19" y2="50.94"/>
  <line class="cls-1" x1="84.94" y1="58.69" x2="99.19" y2="58.69"/>
  <line class="cls-1" x1="34.69" y1="135.44" x2="42.94" y2="135.44"/>
  <line class="cls-1" x1="97.69" y1="135.44" x2="105.94" y2="135.44"/>
</svg>