<?xml version="1.0" encoding="UTF-8"?>
<svg id="carte_electronique" data-name="carte electronique" xmlns="http://www.w3.org/2000/svg" viewBox="0 0 200 200">
  <defs>
    <style>
      .cls-1 {
        stroke-linecap: round;
        stroke-linejoin: round;
      }

      .cls-1, .cls-2 {
        fill: none;
        stroke: #000;
        stroke-width: 4px;
      }

      .cls-2 {
        stroke-miterlimit: 10;
      }

      .cls-3 {
        stroke-width: 0px;
      }
    </style>
  </defs>
  
  <g>
    <polyline class="cls-2" points="28 149 49.75 149 66.62 132.13"/>
    <path class="cls-3" d="m166,29.25c2.76,0,5,2.24,5,5v132c0,2.76-2.24,5-5,5H60.41c-1.74-4.41-6.03-7.5-11.04-7.5s-9.3,3.09-11.04,7.5h-4.34c-2.76,0-5-2.24-5-5V34.25c0-2.76,2.24-5,5-5h4.07c1.54,4.78,6.03,8.25,11.31,8.25s9.77-3.47,11.31-8.25h105.32m0-4H57.23c0,.13.02.25.02.38,0,4.35-3.53,7.88-7.88,7.88s-7.88-3.53-7.88-7.88c0-.13.01-.25.02-.38h-7.52c-4.95,0-9,4.05-9,9v132c0,4.95,4.05,9,9,9h7.52c.2-4.17,3.63-7.5,7.86-7.5s7.66,3.33,7.86,7.5h108.77c4.95,0,9-4.05,9-9V34.25c0-4.95-4.05-9-9-9h0Z"/>
    <polyline class="cls-2" points="136.38 26.75 136.38 41.75 132.06 46.06"/>
    <polyline class="cls-2" points="149.5 28.25 149.5 48.5 132.62 65.38"/>
    <path class="cls-3" d="m129.55,46.58c.92,0,1.66.75,1.66,1.66s-.75,1.66-1.66,1.66-1.66-.75-1.66-1.66.75-1.66,1.66-1.66m0-4c-3.13,0-5.66,2.53-5.66,5.66s2.53,5.66,5.66,5.66,5.66-2.53,5.66-5.66-2.53-5.66-5.66-5.66h0Z"/>
    <path class="cls-3" d="m128.05,126.83c.92,0,1.66.75,1.66,1.66s-.75,1.66-1.66,1.66-1.66-.75-1.66-1.66.75-1.66,1.66-1.66m0-4c-3.13,0-5.66,2.53-5.66,5.66s2.53,5.66,5.66,5.66,5.66-2.53,5.66-5.66-2.53-5.66-5.66-5.66h0Z"/>
    <path class="cls-3" d="m69.55,126.83c.92,0,1.66.75,1.66,1.66s-.75,1.66-1.66,1.66-1.66-.75-1.66-1.66.75-1.66,1.66-1.66m0-4c-3.13,0-5.66,2.53-5.66,5.66s2.53,5.66,5.66,5.66,5.66-2.53,5.66-5.66-2.53-5.66-5.66-5.66h0Z"/>
    <path class="cls-3" d="m129.59,66.53c.92,0,1.66.75,1.66,1.66s-.75,1.66-1.66,1.66-1.66-.75-1.66-1.66.75-1.66,1.66-1.66m0-4c-3.13,0-5.66,2.53-5.66,5.66s2.53,5.66,5.66,5.66,5.66-2.53,5.66-5.66-2.53-5.66-5.66-5.66h0Z"/>
    <rect class="cls-1" x="76.55" y="75.75" width="45.56" height="45.56" rx="6" ry="6"/>
    <rect class="cls-1" x="88.46" y="87.55" width="21.75" height="21.75" rx="6" ry="6"/>
    <line class="cls-1" x1="133.75" y1="128.75" x2="172.75" y2="128.75"/>
    <line class="cls-1" x1="153.25" y1="140.75" x2="172.75" y2="140.75"/>
    <line class="cls-1" x1="139.75" y1="152.75" x2="172.75" y2="152.75"/>
    <rect class="cls-1" x="70.83" y="150.75" width="57" height="11.25" rx="5.62" ry="5.62"/>
    <rect class="cls-1" x="37" y="45.5" width="35.25" height="11.25" rx="5.62" ry="5.62"/>
    <rect class="cls-1" x="37" y="64.25" width="16.5" height="11.25" rx="5.62" ry="5.62"/>
    <g>
      <line class="cls-1" x1="122.96" y1="90.78" x2="137.21" y2="90.78"/>
      <line class="cls-1" x1="122.96" y1="98.53" x2="137.21" y2="98.53"/>
      <line class="cls-1" x1="122.96" y1="106.28" x2="137.21" y2="106.28"/>
    </g>
    <g>
      <line class="cls-1" x1="61.46" y1="90.78" x2="75.71" y2="90.78"/>
      <line class="cls-1" x1="61.46" y1="98.53" x2="75.71" y2="98.53"/>
      <line class="cls-1" x1="61.46" y1="106.28" x2="75.71" y2="106.28"/>
    </g>
    <g>
      <g>
        <line class="cls-1" x1="107.08" y1="122.16" x2="107.08" y2="136.41"/>
        <line class="cls-1" x1="99.33" y1="122.16" x2="99.33" y2="136.41"/>
        <line class="cls-1" x1="91.58" y1="122.16" x2="91.58" y2="136.41"/>
      </g>
      <g>
        <line class="cls-1" x1="107.08" y1="60.66" x2="107.08" y2="74.91"/>
        <line class="cls-1" x1="99.33" y1="60.66" x2="99.33" y2="74.91"/>
        <line class="cls-1" x1="91.58" y1="60.66" x2="91.58" y2="74.91"/>
      </g>
    </g>
  </g>
</svg>