<?xml version="1.0" encoding="UTF-8"?>
<svg id="outillage" xmlns="http://www.w3.org/2000/svg" viewBox="0 0 200 200">
  <defs>
    <style>
      .cls-1 {
        fill: none;
        stroke: #000;
        stroke-linecap: round;
        stroke-linejoin: round;
        stroke-width: 4px;
      }
    </style>
  </defs>
  <path class="cls-1" d="m77.04,134.46c0,2.47,2.02,4.5,4.5,4.5h71.93c2.47,0,4.5-2.03,4.5-4.5v-38.96h15.32v49.78c0,4.95-4.05,9-9,9h-93.56c-4.95,0-9-4.05-9-9"/>
  <path class="cls-1" d="m61.72,145.28V35.72c0-4.95,4.05-9,9-9h22.03v15.32h-11.21c-2.48,0-4.5,2.03-4.5,4.5v87.93"/>
  <circle class="cls-1" cx="38.09" cy="161.91" r="11.62"/>
  <line class="cls-1" x1="37.72" y1="104.53" x2="37.72" y2="97.03"/>
  <line class="cls-1" x1="37.72" y1="150.28" x2="37.72" y2="117.28"/>
  <line class="cls-1" x1="100.34" y1="103" x2="100.34" y2="116.13"/>
  <line class="cls-1" x1="108.34" y1="103" x2="108.34" y2="116.13"/>
  <line class="cls-1" x1="92.59" y1="103" x2="92.59" y2="116.13"/>
  <line class="cls-1" x1="84.84" y1="103" x2="84.84" y2="116.13"/>
  <g>
    <line class="cls-1" x1="152.72" y1="103.41" x2="152.72" y2="117.66"/>
    <line class="cls-1" x1="144.97" y1="103.41" x2="144.97" y2="117.66"/>
    <line class="cls-1" x1="137.22" y1="103.41" x2="137.22" y2="117.66"/>
  </g>
  <path class="cls-1" d="m131.72,124.53V35.72c0-4.95-4.05-9-9-9h-22.03s0,15.32,0,15.32h11.21c2.47,0,4.5,2.03,4.5,4.5v77.99s15.32,0,15.32,0Z"/>
  <path class="cls-1" d="m61.72,131.53h-4.5c-4.95,0-9-4.05-9-9v-24c0-4.95,4.05-9,9-9h4.5"/>
  <path class="cls-1" d="m46.72,116.53h-12.75c-2.47,0-4.5-2.03-4.5-4.5v-3c0-2.47,2.03-4.5,4.5-4.5h12.75"/>
  <g>
    <line class="cls-1" x1="115.72" y1="118.53" x2="77.47" y2="118.53"/>
    <line class="cls-1" x1="132.97" y1="118.53" x2="156.97" y2="118.53"/>
  </g>
  <line class="cls-1" x1="77.47" y1="102.53" x2="115.72" y2="102.53"/>
  <line class="cls-1" x1="132.97" y1="102.53" x2="156.97" y2="102.53"/>
</svg>