<?xml version="1.0" encoding="UTF-8"?>
<svg id="hifi" xmlns="http://www.w3.org/2000/svg" viewBox="0 0 200 200">
  <defs>
    <style>
      .cls-1 {
        stroke-linecap: round;
        stroke-linejoin: round;
      }

      .cls-1, .cls-2 {
        fill: none;
        stroke: currentcolor;
        stroke-width: 4px;
      }

      .cls-2 {
        stroke-miterlimit: 10;
      }

      .cls-3 {
        stroke: currentcolor
        stroke-width: 0px;
      }
    </style>
  </defs>
  <g>
    <path class="cls-2" d="m83.5,159.37v9.63c0,2.47-2.02,4.5-4.5,4.5h-6c-2.47,0-4.5-2.02-4.5-4.5v-9.71"/>
    <path class="cls-2" d="m131.5,159.61v9.39c0,2.47-2.02,4.5-4.5,4.5h-6c-2.47,0-4.5-2.02-4.5-4.5v-9.23"/>
    <path class="cls-3" d="m130.38,27.5c4.41,0,8,3.59,8,8v114c0,4.41-3.59,8-8,8h-60.75c-4.41,0-8-3.59-8-8V35.5c0-4.41,3.59-8,8-8h60.75m0-4h-60.75c-6.6,0-12,5.4-12,12v114c0,6.6,5.4,12,12,12h60.75c6.6,0,12-5.4,12-12V35.5c0-6.6-5.4-12-12-12h0Z"/>
    <g>
      <path class="cls-3" d="m100,96.36c10.45,0,18.94,8.5,18.94,18.94s-8.5,18.94-18.94,18.94-18.94-8.5-18.94-18.94,8.5-18.94,18.94-18.94m0-4c-12.67,0-22.94,10.27-22.94,22.94s10.27,22.94,22.94,22.94,22.94-10.27,22.94-22.94-10.27-22.94-22.94-22.94h0Z"/>
      <path class="cls-3" d="m100,106.4c4.91,0,8.91,3.99,8.91,8.91s-3.99,8.91-8.91,8.91-8.91-3.99-8.91-8.91,3.99-8.91,8.91-8.91m0-4c-7.13,0-12.91,5.78-12.91,12.91s5.78,12.91,12.91,12.91,12.91-5.78,12.91-12.91-5.78-12.91-12.91-12.91h0Z"/>
    </g>
    <g>
      <path class="cls-3" d="m100,50.47c7.28,0,13.21,5.92,13.21,13.21s-5.92,13.21-13.21,13.21-13.21-5.92-13.21-13.21,5.92-13.21,13.21-13.21m0-4c-9.5,0-17.21,7.7-17.21,17.21s7.7,17.21,17.21,17.21,17.21-7.7,17.21-17.21-7.7-17.21-17.21-17.21h0Z"/>
      <path class="cls-3" d="m100,60.03c2.01,0,3.65,1.64,3.65,3.65s-1.64,3.65-3.65,3.65-3.65-1.64-3.65-3.65,1.64-3.65,3.65-3.65m0-4c-4.22,0-7.65,3.42-7.65,7.65s3.42,7.65,7.65,7.65,7.65-3.42,7.65-7.65-3.42-7.65-7.65-7.65h0Z"/>
    </g>
    <line class="cls-1" x1="21.5" y1="83.31" x2="21.5" y2="113.69"/>
    <line class="cls-1" x1="29.06" y1="88.38" x2="29.06" y2="108.63"/>
    <line class="cls-1" x1="36.62" y1="91.75" x2="36.62" y2="105.25"/>
    <line class="cls-1" x1="44.19" y1="85" x2="44.19" y2="112"/>
    <line class="cls-1" x1="51.75" y1="78.25" x2="51.75" y2="118.75"/>
    <line class="cls-1" x1="148.25" y1="78.25" x2="148.25" y2="118.75"/>
    <line class="cls-1" x1="155.81" y1="85" x2="155.81" y2="112"/>
    <line class="cls-1" x1="163.38" y1="91.75" x2="163.38" y2="105.25"/>
    <line class="cls-1" x1="170.94" y1="88.38" x2="170.94" y2="108.63"/>
    <line class="cls-1" x1="178.5" y1="83.31" x2="178.5" y2="113.69"/>
    <line class="cls-1" x1="66.82" y1="33.07" x2="73.18" y2="39.43"/>
    <line class="cls-1" x1="133.74" y1="33.07" x2="127.37" y2="39.43"/>
    <line class="cls-1" x1="133.74" y1="152.11" x2="127.37" y2="145.74"/>
    <line class="cls-1" x1="66.82" y1="152.11" x2="73.18" y2="145.74"/>
  </g>
  
</svg>